<?xml version="1.0" encoding="UTF-8"?>
<svg width="48px" height="49px" viewBox="0 0 48 49" version="1.1" xmlns="http://www.w3.org/2000/svg" xmlns:xlink="http://www.w3.org/1999/xlink">
    <!-- Generator: Sketch 60.1 (88133) - https://sketch.com -->
    <title>Group 20 Copy 2</title>
    <desc>Created with Sketch.</desc>
    <g id="Home" stroke="none" stroke-width="1" fill="none" fill-rule="evenodd">
        <g id="Home-QuintoAndar-Desktop" transform="translate(-889.000000, -2929.000000)">
            <g id="QuintoAndar-Value-Proposition" transform="translate(167.000000, 2833.000000)">
                <g id="QuintoAndar-Value-Propostion" transform="translate(706.000000, 80.000000)">
                    <g id="Icon">
                        <g transform="translate(16.000000, 16.071429)">
                            <g id="Group-20-Copy-2">
                                <polygon id="Clip-2" points="14.4083869 0.0217218045 33.5843182 0.0217218045 33.5843182 1.90511645 14.4083869 1.90511645"></polygon>
                                <path d="M33.5843182,1.90511645 L14.4083869,1.90511645 C17.3355892,0.692552538 20.5797566,0.0217141917 24.001015,0.0217141917 C27.4130036,0.0217141917 30.6571709,0.692552538 33.5843182,1.90511645" id="Fill-1" fill="#FEC047"></path>
                                <polygon id="Clip-5" points="13.4623975 46.2866444 33.5981999 46.2866444 33.5981999 48.2142857 13.4623975 48.2142857"></polygon>
                                <path d="M33.5981999,46.2866444 C30.5384502,47.5276435 27.1270081,48.2142882 23.5350793,48.2142882 C19.9335893,48.2142882 16.5222593,47.5276435 13.4623975,46.2866444 L33.5981999,46.2866444 Z" id="Fill-4" fill="#FEC047"></path>
                                <path d="M41.28,7.71428571 L5.76,7.71428571 C6.58999429,6.66937779 7.48682052,5.70139203 8.44090716,4.82142857 L38.5990928,4.82142857 C39.562751,5.70139203 40.4594928,6.66937779 41.28,7.71428571" id="Fill-7" fill="#FEC047"></path>
                                <path d="M46.08,14.4642857 L1.92,14.4642857 C2.2821634,13.463324 2.71115138,12.4954356 3.18767032,11.5714286 L44.8123297,11.5714286 C45.288933,12.4954356 45.7177804,13.463324 46.08,14.4642857" id="Fill-9" fill="#FEC047"></path>
                                <path d="M48,21.2142857 L0,21.2142857 C0.0956832962,20.2352972 0.248923428,19.2674088 0.44989224,18.3214286 L47.5596535,18.3214286 C47.7511331,19.2674088 47.9041755,20.2352972 48,21.2142857" id="Fill-11" fill="#FEC047"></path>
                                <polygon id="Clip-14" points="0 26.0654249 47.9926651 26.0654249 47.9926651 28.8988354 0 28.8988354"></polygon>
                                <path d="M47.9926792,26.0654249 C47.9355176,27.0242322 47.8306932,27.9722946 47.6878735,28.8988354 L0.304791569,28.8988354 C0.161915691,27.9722946 0.0570913349,27.0242322 -1.40515222e-05,26.0654249 L47.9926792,26.0654249 Z" id="Fill-13" fill="#FEC047"></path>
                                <path d="M46.08,32.7857143 C45.7438319,33.786676 45.3498972,34.7436265 44.9176122,35.6785714 L2.12230276,35.6785714 C1.6899894,34.7436265 1.29616814,33.786676 0.96,32.7857143 L46.08,32.7857143 Z" id="Fill-16" fill="#FEC047"></path>
                                <path d="M42.24,39.5357143 C41.4932064,40.569587 40.6802773,41.5375727 39.8105011,42.4285714 L8.18944309,42.4285714 C7.31972272,41.5375727 6.50679357,40.569587 5.76,39.5357143 L42.24,39.5357143 Z" id="Fill-18" fill="#FEC047"></path>
                            </g>
                        </g>
                    </g>
                </g>
            </g>
        </g>
    </g>
</svg>