<?xml version="1.0" encoding="UTF-8"?>
<svg width="182px" height="11px" viewBox="0 0 182 11" version="1.1" xmlns="http://www.w3.org/2000/svg" xmlns:xlink="http://www.w3.org/1999/xlink">
    <!-- Generator: Sketch 60.1 (88133) - https://sketch.com -->
    <title>Streptococcus</title>
    <desc>Created with Sketch.</desc>
    <g id="Home" stroke="none" stroke-width="1" fill="none" fill-rule="evenodd">
        <g id="Home-QuintoAndar-Desktop" transform="translate(-688.000000, -725.000000)" fill="#5063F0">
            <path d="M785.308569,729.095988 C787.961225,727.082318 790.704564,725 793.703185,725 C796.70333,725 799.446669,727.082318 802.100087,729.095988 C804.342766,730.799108 806.663173,732.559435 808.642187,732.559435 C810.621963,732.559435 812.941608,730.799108 815.184287,729.095988 C817.837705,727.082318 820.581044,725 823.580427,725 C826.580572,725 829.323911,727.082318 831.977329,729.095988 C834.220008,730.799108 836.540415,732.559435 838.518667,732.559435 C840.499205,732.559435 842.819612,730.799108 845.062291,729.095988 C847.714947,727.082318 850.458286,725 853.458431,725 C856.457814,725 859.200391,727.082318 861.853809,729.095988 C864.096488,730.799108 866.416895,732.559435 868.396671,732.559435 C869.28216,732.559435 870,733.329272 870,734.279718 C870,735.230163 869.28216,736 868.396671,736 C865.396526,736 862.653187,733.917682 859.999769,731.903195 C857.75709,730.200074 855.437445,728.439747 853.458431,728.439747 C851.478655,728.439747 849.158248,730.200074 846.915569,731.903195 L846.345542,732.335125 C843.868935,734.204532 841.304516,736 838.518667,736 C835.520046,736 832.776707,733.917682 830.124051,731.904012 L829.58453,731.494914 C827.512282,729.929688 825.402522,728.439747 823.580427,728.439747 C821.601413,728.439747 819.281006,730.200074 817.038327,731.904012 C814.384909,733.917682 811.64157,736 808.642187,736 C805.642804,736 802.899465,733.917682 800.246047,731.903195 C798.003368,730.200074 795.683723,728.439747 793.703185,728.439747 C791.724933,728.439747 789.404526,730.200074 787.161847,731.903195 C784.774488,733.715689 782.314338,735.583092 779.6604,735.93936 C779.525442,735.978633 779.382575,736 779.235055,736 L779.00045,735.995768 C778.922376,735.998577 778.844129,736 778.765707,736 C778.61806,736 778.475087,735.978633 778.339328,735.938625 C775.685046,735.582625 773.225213,733.715462 770.838153,731.903195 C768.595474,730.200074 766.275829,728.439747 764.296815,728.439747 C762.317039,728.439747 759.996632,730.200074 757.753953,731.903195 C755.100535,733.917682 752.357196,736 749.357051,736 C746.35843,736 743.615091,733.917682 740.962435,731.904012 L740.422914,731.494914 C738.350666,729.929688 736.240906,728.439747 734.418811,728.439747 C732.439797,728.439747 730.11939,730.200074 727.876711,731.904012 C725.223293,733.917682 722.479954,736 719.480571,736 C716.481188,736 713.737849,733.917682 711.084431,731.903195 C708.841752,730.200074 706.522107,728.439747 704.541569,728.439747 C702.563317,728.439747 700.24291,730.200074 698.000231,731.903195 L697.430204,732.335125 C694.953601,734.204532 692.389233,736 689.604091,736 C688.71784,736 688,735.230163 688,734.279718 C688,733.329272 688.71784,732.559435 689.604091,732.559435 C691.583867,732.559435 693.903512,730.799108 696.146953,729.095988 C698.799609,727.082318 701.542948,725 704.541569,725 C707.541714,725 710.285053,727.082318 712.938471,729.095988 C715.18115,730.799108 717.501557,732.559435 719.480571,732.559435 C721.460347,732.559435 723.779992,730.799108 726.022671,729.095988 C728.676089,727.082318 731.419428,725 734.418811,725 C737.418956,725 740.162295,727.082318 742.815713,729.095988 C745.058392,730.799108 747.378799,732.559435 749.357051,732.559435 C751.337589,732.559435 753.657996,730.799108 755.900675,729.095988 C758.553331,727.082318 761.29667,725 764.296815,725 C767.296198,725 770.038775,727.082318 772.692193,729.095988 C774.845165,730.730984 777.069771,732.418701 778.995874,732.551102 L778.765707,732.559435 C780.745483,732.559435 783.065128,730.799108 785.308569,729.095988 Z" id="Streptococcus"></path>
        </g>
    </g>
</svg>